<?xml version="1.0" encoding="utf-8"?>
<!-- Generator: Adobe Illustrator 24.0.2, SVG Export Plug-In . SVG Version: 6.00 Build 0)  -->
<svg version="1.1" id="Capa_1" xmlns="http://www.w3.org/2000/svg" xmlns:xlink="http://www.w3.org/1999/xlink" x="0px" y="0px"
	 viewBox="0 0 359.37 287.54" style="enable-background:new 0 0 359.37 287.54;" xml:space="preserve">
<style type="text/css">
	.st0{fill:#FFFFFF;}
</style>
<g>
	<path class="st0" d="M179.41,47.91c-51.52,0-103.04,0.02-154.57-0.01C10.39,47.89-0.35,37.16-0.02,23.23
		C0.27,10.96,10.27,0.69,22.56,0.04c1-0.05,2-0.04,2.99-0.04c102.79,0,205.59-0.01,308.38,0c12.6,0,22.19,7.21,24.78,18.56
		c3.4,14.9-7.54,29.05-22.86,29.3c-11.6,0.19-23.2,0.05-34.8,0.05C260.5,47.92,219.95,47.92,179.41,47.91z"/>
	<path class="st0" d="M179.83,119.79c51.52,0,103.04-0.02,154.57,0.01c14.51,0.01,25.26,10.65,24.97,24.57
		c-0.26,12.29-10.19,22.58-22.48,23.28c-1,0.06-2,0.05-2.99,0.05c-102.79,0-205.59,0.01-308.38,0c-12.81,0-22.38-7.27-24.93-18.84
		c-3.25-14.73,7.68-28.72,22.82-29.03c8.6-0.17,17.21-0.04,25.82-0.04C92.75,119.79,136.29,119.79,179.83,119.79z"/>
	<path class="st0" d="M179.73,287.49c-51.65,0-103.29,0.02-154.94-0.01c-14.43-0.01-25.16-10.79-24.81-24.73
		c0.31-12.11,10.14-22.32,22.26-23.11c0.87-0.06,1.75-0.05,2.62-0.05c103.17,0,206.34-0.01,309.5,0.01
		c11.93,0,21.49,7.11,24.22,17.88c3.84,15.13-7.17,29.77-22.8,29.98c-14.34,0.19-28.69,0.05-43.04,0.05
		C255.08,287.49,217.4,287.49,179.73,287.49z"/>
</g>
</svg>
